<?xml version="1.0" encoding="utf-8"?>
<!-- Generator: Adobe Illustrator 23.0.3, SVG Export Plug-In . SVG Version: 6.00 Build 0)  -->
<svg version="1.1" id="Capa_1" xmlns="http://www.w3.org/2000/svg" xmlns:xlink="http://www.w3.org/1999/xlink" x="0px" y="0px"
	 viewBox="0 0 542.1 502.2" style="enable-background:new 0 0 542.1 502.2;" xml:space="preserve">
<style type="text/css">
	.st0{fill:#D4F6FF;stroke:#350500;stroke-width:6;stroke-miterlimit:10;}
	.st1{clip-path:url(#SVGID_2_);}
	.st2{opacity:0.45;fill:url(#SVGID_3_);enable-background:new    ;}
	.st3{opacity:0.45;fill:url(#SVGID_4_);enable-background:new    ;}
	.st4{fill:#222D48;}
	.st5{opacity:0.45;fill:#11182E;enable-background:new    ;}
	.st6{fill:#FFB33C;}
	.st7{clip-path:url(#SVGID_6_);}
	.st8{fill:#273352;}
	.st9{fill:#0A1327;}
	.st10{clip-path:url(#SVGID_8_);}
	.st11{opacity:0.4;fill:#11182E;enable-background:new    ;}
	.st12{fill:#FFD38F;}
	.st13{clip-path:url(#SVGID_10_);}
	.st14{opacity:0.76;fill:#11182E;enable-background:new    ;}
	.st15{opacity:0.25;fill:#FFFFFF;enable-background:new    ;}
	.st16{fill:#EDE3C3;}
	.st17{fill:#B8AD8F;}
	.st18{fill:#E3D2A1;}
	.st19{fill:#FFF1C9;}
	.st20{fill:#9E0826;}
	.st21{fill:none;stroke:#FFFAE8;stroke-width:1.85;stroke-miterlimit:10;}
	.st22{clip-path:url(#SVGID_12_);}
	.st23{opacity:0.5;fill:#11182E;enable-background:new    ;}
	.st24{fill:#BF0D32;}
	.st25{fill:#FF9215;}
	.st26{opacity:0.25;fill:#11182E;enable-background:new    ;}
	.st27{fill:#FDAC39;}
</style>
<title>Asset 8</title>
<circle class="st0" cx="290.5" cy="245.1" r="205.7"/>
<g>
	<g>
		<defs>
			<circle id="SVGID_1_" cx="290.5" cy="245.1" r="205.7"/>
		</defs>
		<clipPath id="SVGID_2_">
			<use xlink:href="#SVGID_1_"  style="overflow:visible;"/>
		</clipPath>
		<g class="st1">
			
				<linearGradient id="SVGID_3_" gradientUnits="userSpaceOnUse" x1="296.4512" y1="2412.3794" x2="480.6912" y2="2588.6594" gradientTransform="matrix(1 0 0 1 0 -2228)">
				<stop  offset="0" style="stop-color:#000000"/>
				<stop  offset="0.99" style="stop-color:#000000;stop-opacity:0"/>
			</linearGradient>
			<polygon class="st2" points="627,321.6 458.3,177 203.3,274.3 471,503.5 			"/>
			
				<linearGradient id="SVGID_4_" gradientUnits="userSpaceOnUse" x1="-268.7084" y1="2978.4412" x2="-67.2984" y2="3171.1511" gradientTransform="matrix(0.68 0.38 0.38 0.56 -790.41 -1291.0699)">
				<stop  offset="0" style="stop-color:#000000"/>
				<stop  offset="0.99" style="stop-color:#000000;stop-opacity:0"/>
			</linearGradient>
			<polygon class="st3" points="459.6,493.9 275.2,335.8 126,291 418.6,541.7 			"/>
		</g>
	</g>
</g>
<path class="st4" d="M290.5,219.6l-99-21.1l11.7,75.9c0,0,44.6,35.2,87.2,35.2s87.2-35.2,87.2-35.2l11.7-75.9L290.5,219.6z"/>
<path class="st5" d="M290.5,294.9c-42.6,0-89.5-36.1-89.5-36.1l2.2,14.4c0,0,44.6,35.2,87.2,35.2s87.2-35.2,87.2-35.2l2.2-14.4
	C380,258.8,333.1,294.9,290.5,294.9z"/>
<path class="st6" d="M290.5,296.1c-42.6,0-89.5-36.1-89.5-36.1l2.2,14.4c0,0,44.6,35.2,87.2,35.2s87.2-35.2,87.2-35.2L380,260
	C380,260,333.1,296.1,290.5,296.1z"/>
<g>
	<g>
		<defs>
			<path id="SVGID_5_" d="M290.5,219.6l-99-21.1l11.7,75.9c0,0,44.6,35.2,87.2,35.2s87.2-35.2,87.2-35.2l11.7-75.9L290.5,219.6z"/>
		</defs>
		<clipPath id="SVGID_6_">
			<use xlink:href="#SVGID_5_"  style="overflow:visible;"/>
		</clipPath>
		<g class="st7">
			<path class="st5" d="M191.1,194.6l3.4,22.9l95.7,40.5l83.8-38.3c0,0-26.3,65.2-83.5,90c0,0,47.1,13.2,91.7-24.8
				s28.2-104.4,28.2-104.4L191.1,194.6z"/>
		</g>
	</g>
</g>
<polygon class="st4" points="290.5,155.4 123.5,176.6 123.5,186.8 290.5,229.9 457.5,186.8 457.5,176.6 "/>
<polygon class="st8" points="123.5,176.6 123.5,186.8 290.5,229.9 290.5,211.2 "/>
<polygon class="st9" points="457.5,176.6 457.5,186.8 290.5,229.9 290.5,211.2 "/>
<g>
	<g>
		<defs>
			<path id="SVGID_7_" d="M457.5,176.6l-167-21.2l-167,21.2v10.2l69,17.8l10.8,69.8c0,0,44.6,35.2,87.2,35.2s87.2-35.2,87.2-35.2
				l10.8-69.8l69-17.8V176.6z"/>
		</defs>
		<clipPath id="SVGID_8_">
			<use xlink:href="#SVGID_7_"  style="overflow:visible;"/>
		</clipPath>
		<g class="st10">
			<path class="st11" d="M362.3,196.2c-3.2-3.8-35.8-10.6-56.6-14.6c-0.6-2.8-6.7-5-14-5c-7.8,0-14.1,2.4-14.1,5.5s6.3,5.5,14.1,5.5
				c5.2,0,9.7-1.1,12.2-2.7C331,190,357,196,359.5,198.4c2.5,5.2,1.1,70.1-0.4,109.9l3.5,0.1c0-0.3,1-26.9,1.5-53.8
				C365.1,199.6,363.2,197.3,362.3,196.2z"/>
		</g>
	</g>
</g>
<path class="st6" d="M360.7,309.6l-3.5-0.1c1.5-39.9,2.8-104.7,0.4-109.9c-2.9-2.7-36.5-10.2-67.4-15.8l0.6-3.5
	c15.3,2.8,65.5,12.2,69.5,17c0.9,1.1,2.9,3.4,1.9,58.4C361.7,282.7,360.7,309.3,360.7,309.6z"/>
<path class="st6" d="M364.4,304.5c0-3-2.4-5.5-5.5-5.5c-3,0-5.5,2.4-5.5,5.5c0,3,2.4,5.5,5.5,5.5l0,0
	C362,309.9,364.4,307.5,364.4,304.5z"/>
<path class="st6" d="M358.9,308.1c0,0-11.2,0-11.2,42.5c0,0,2.6,2.9,11.2,2.9s11.2-2.9,11.2-2.9
	C370.2,308.1,358.9,308.1,358.9,308.1z"/>
<path class="st12" d="M350.5,352.3c0,0-0.9-6.7,0.7-19"/>
<path class="st12" d="M356.7,353.5c-0.3-6.8-0.2-13.5,0.5-20.3"/>
<path class="st12" d="M362.4,353.3c0.5-6.7,0.5-13.4,0-20.1"/>
<path class="st12" d="M367.7,352.3c0.7-6.3,0.5-12.7-0.5-19"/>
<g>
	<g>
		<defs>
			<path id="SVGID_9_" d="M361.5,309.3c2.7-1.4,3.8-4.7,2.4-7.4c-1.4-2.7-4.7-3.8-7.4-2.4c-2.7,1.4-3.8,4.7-2.4,7.4
				c0.5,1,1.4,1.9,2.4,2.4c-3.3,2.8-8.7,11.8-8.7,41.3c0,0,2.6,2.9,11.2,2.9s11.2-2.9,11.2-2.9C370.2,321.1,364.8,312.1,361.5,309.3
				z"/>
		</defs>
		<clipPath id="SVGID_10_">
			<use xlink:href="#SVGID_9_"  style="overflow:visible;"/>
		</clipPath>
		<g class="st13">
			<path class="st5" d="M356.4,290.8c0,0,0.1,8.2,2.5,8.2s7.1,9.1-2.5,10.3c0,0,3.8,0.5,6.1,7.3c3.9,11.4,5.1,35.7-14.9,34l3.6,11.4
				l31.9-1.9l-2-58.3L356.4,290.8z"/>
		</g>
	</g>
</g>
<path class="st14" d="M305.2,183c-5.9-1.1-11-2.1-14.4-2.7l-0.6,3.5c3.7,0.7,7.5,1.4,11.2,2.1C303.4,185.1,304.7,184.1,305.2,183z"
	/>
<ellipse class="st6" cx="290.5" cy="182.1" rx="14.1" ry="5.5"/>
<ellipse class="st5" cx="290.5" cy="182.1" rx="14.1" ry="5.5"/>
<ellipse class="st6" cx="288.5" cy="181.4" rx="11.2" ry="4.3"/>
<path class="st15" d="M288.9,179.4c0.2,1-1.9,2.3-4.6,2.8c-2.8,0.5-5.1,0.1-5.3-0.9c-0.2-1,1.9-2.3,4.6-2.8
	C286.4,178,288.7,178.3,288.9,179.4z"/>
<path class="st15" d="M357.8,300.5c0.5,0.3,0.3,1.5-0.4,2.5s-1.7,1.6-2.2,1.3s-0.3-1.5,0.4-2.5S357.3,300.2,357.8,300.5z"/>
<path class="st15" d="M357.9,313.5c1.9,0.4,2.9,3.6,2.2,7.3c-0.7,3.7-2.8,6.4-4.7,6c-1.9-0.3-2.9-3.6-2.2-7.3
	C353.9,315.9,356,313.2,357.9,313.5z"/>
<path class="st16" d="M218.3,340.1l44.6,22.9c8.4-35.6,25.7-45.5,25.7-45.5l-45-23.2"/>
<path class="st16" d="M250.9,356.5c0.7,0.5,10.6,7.2,15.1,8s18.5,2.9,24-11.3s-6.6-22.9-6.6-22.9s-4.6-5.7-14.4-2.8
	C259.1,330.4,250.9,356.5,250.9,356.5z"/>
<path class="st16" d="M267,317c0.5,1.1,37.5,21.3,37.5,21.3c0.9,2.3-10.6,46-54.8,17.3l-10-16.8c0,0,4.9-24.9,17.3-26.8
	c12.4-1.9,28.5,0.1,35.8,9.7c7.3,9.5,3.6,17.3,3.6,17.3L267,317z"/>
<path class="st17" d="M261.9,326.7c0.6,0.1,8-3.5,8-3.5s11.1,5,13.4,7.1c2.3,2,2.3,7.4,2.3,7.4L261.9,326.7z"/>
<path class="st18" d="M282,327.5l-45-22.6l-6.6,23.8l44.4,23.7c-13.8-7.9-7.3-14.8-6.5-20.8S282,327.5,282,327.5z"/>
<path class="st19" d="M286.1,314.9l-46.4-22.5l-84.2-41.5c-0.6-0.4-1.2-0.7-1.8-1.1c-0.9-0.5-1.8-0.9-2.8-1.2l-0.3-0.2l0,0
	c-12.8-4.7-27,2-31.6,14.8c-4.3,11.8,0.9,24.8,12.1,30.5c1.1,0.6,80.1,43.2,80.1,43.2l0,0l49.8,26.2c0,0-9.8-6-12-17
	s4-20.7,6.6-23.7C258,319.5,266.6,310.2,286.1,314.9z"/>
<path class="st20" d="M211.1,336.9c-0.4-0.2-0.8-0.4-1.2-0.7c-12.6-7.2-17-23.2-9.9-35.8c7-12.3,22.6-16.9,35.1-10.2l-28.5-14.7
	c-12.8-6.9-28.7-2.1-35.6,10.6c-6.9,12.8-2.1,28.7,10.6,35.6c0.3,0.2,0.6,0.3,0.8,0.4L211.1,336.9z"/>
<path class="st21" d="M304.5,337.8c0,14.9-13.1,30.8-36.4,27c-12.6-2.1-22.7-14.1-18.5-31.5c3.4-13.9,17.4-22.5,31.3-19.2
	c11.1,2.7,18,13.9,15.4,25c-2.1,8.9-11.1,14.4-20,12.3c-7.1-1.7-11.5-8.9-9.8-16c1.3-5.7,7.1-9.3,12.8-7.9c4.6,1.1,7.4,5.7,6.3,10.2
	l0,0"/>
<g>
	<g>
		<defs>
			<path id="SVGID_11_" d="M286.1,314.9l-46.4-22.5l-84.2-41.5c-0.6-0.4-1.2-0.7-1.8-1.1c-0.9-0.5-1.8-0.9-2.8-1.2l-0.3-0.2l0,0
				c-12.8-4.7-27,2-31.6,14.8c-4.3,11.8,0.9,24.8,12.1,30.5c51.2,27.3,52.5,29,52.5,29l27.6,14.3l49.8,26.1c0,0-9.8-6-12-17
				s4-20.7,6.6-23.7C258,319.5,266.6,310.2,286.1,314.9z"/>
		</defs>
		<clipPath id="SVGID_12_">
			<use xlink:href="#SVGID_11_"  style="overflow:visible;"/>
		</clipPath>
		<g class="st22">
			<path class="st23" d="M108.2,264.1l141.5,69.1c0,0-6.1,28.8,24.1,32s-1.6,31.2-1.6,31.2l-171-76.5L108.2,264.1z"/>
		</g>
	</g>
</g>
<path class="st24" d="M184.9,307.2c0,0-4.4,20.7-0.6,37.3c1.3-3.6,3-6.9,5.2-10.1c2.4,3.8,5.2,7.4,8.2,10.8c0,0-4.5-32.5-2.2-41.3
	L184.9,307.2z"/>
<path class="st24" d="M176.9,300.5c0,0-12.8,16.8-16.4,33.1c2.7-2.7,5.7-5,9-7c0.6,4.3,1.6,8.6,3,12.8c0,0,9.7-30.8,15.5-37.8
	L176.9,300.5z"/>
<path class="st23" d="M208.5,297.4c0.2-1.8,1.6-3.7,1.3-5.4c-0.3-1.7-2.3-3-3-4.7s-0.5-4-1.6-5.3c-1.2-1.3-3.5-1.5-5-2.5
	s-2.4-3.2-4.1-3.8c-1.7-0.6-3.7,0.5-5.6,0.3c-1.8-0.2-3.7-1.6-5.4-1.3s-3.1,2.3-4.7,3s-4,0.5-5.3,1.6c-1.3,1.2-1.5,3.5-2.5,5
	s-3.2,2.4-3.8,4.1s0.5,3.7,0.3,5.6s-1.6,3.7-1.3,5.4c0.3,1.7,2.3,3.1,3,4.7s0.5,4,1.6,5.3s3.5,1.5,5,2.5s2.3,3.2,4,3.8
	s3.7-0.5,5.6-0.3c1.8,0.2,3.7,1.6,5.4,1.3s3-2.3,4.7-3s4-0.5,5.3-1.6c1.3-1.2,1.5-3.5,2.5-5s3.2-2.3,3.8-4
	C209.3,301.3,208.3,299.2,208.5,297.4z"/>
<path class="st25" d="M207.3,296c0.2-1.8,1.6-3.6,1.3-5.3c-0.3-1.7-2.3-3-3-4.6s-0.5-3.9-1.6-5.3s-3.4-1.5-4.9-2.5s-2.3-3.1-4-3.8
	c-1.7-0.6-3.7,0.5-5.5,0.3s-3.6-1.6-5.3-1.3c-1.7,0.3-3,2.3-4.6,3s-3.9,0.5-5.3,1.6c-1.3,1.1-1.5,3.4-2.5,4.9c-1,1.4-3.2,2.3-3.8,4
	s0.5,3.7,0.3,5.5s-1.6,3.6-1.3,5.3c0.3,1.7,2.3,3,3,4.6s0.4,3.9,1.6,5.3c1.1,1.3,3.4,1.5,4.9,2.5c1.4,1,2.3,3.1,4,3.8
	c1.7,0.6,3.7-0.5,5.5-0.3s3.6,1.6,5.3,1.3c1.7-0.3,3-2.3,4.6-3s3.9-0.5,5.3-1.6c1.3-1.1,1.5-3.5,2.5-4.9s3.2-2.3,3.8-4
	S207.2,297.8,207.3,296z"/>
<circle class="st26" cx="187.9" cy="294.2" r="15.4"/>
<path class="st27" d="M202.7,295c0.7-8.2-5.3-15.4-13.4-16.1c-8.2-0.7-15.4,5.3-16.1,13.4c-0.7,8.2,5.3,15.4,13.4,16.1l0,0
	C194.8,309.2,202,303.2,202.7,295z"/>
</svg>
